# This file uses centimeters as units for non-parametric coordinates.

mtllib cubetest.mtl
g default
v 2.253675 15.978281 10.983236
v 4.639546 15.978281 10.983236
v 2.253675 18.364153 10.983236
v 4.639546 18.364153 10.983236
v 2.253675 18.364153 8.597365
v 4.639546 18.364153 8.597365
v 2.253675 15.978281 8.597365
v 4.639546 15.978281 8.597365
vt 0.379124 0.016495
vt 0.620876 0.016495
vt 0.379124 0.258247
vt 0.620876 0.258247
vt 0.379124 0.500000
vt 0.620876 0.500000
vt 0.379124 0.741753
vt 0.620876 0.741753
vt 0.379124 0.983505
vt 0.620876 0.983505
vt 0.862629 0.016495
vt 0.862629 0.258247
vt 0.137371 0.016495
vt 0.137371 0.258247
vn 0.000000 0.000000 1.000000
vn 0.000000 0.000000 1.000000
vn 0.000000 0.000000 1.000000
vn 0.000000 0.000000 1.000000
vn 0.000000 1.000000 0.000000
vn 0.000000 1.000000 0.000000
vn 0.000000 1.000000 0.000000
vn 0.000000 1.000000 0.000000
vn 0.000000 0.000000 -1.000000
vn 0.000000 0.000000 -1.000000
vn 0.000000 0.000000 -1.000000
vn 0.000000 0.000000 -1.000000
vn 0.000000 -1.000000 0.000000
vn 0.000000 -1.000000 0.000000
vn 0.000000 -1.000000 0.000000
vn 0.000000 -1.000000 0.000000
vn 1.000000 0.000000 0.000000
vn 1.000000 0.000000 0.000000
vn 1.000000 0.000000 0.000000
vn 1.000000 0.000000 0.000000
vn -1.000000 0.000000 0.000000
vn -1.000000 0.000000 0.000000
vn -1.000000 0.000000 0.000000
vn -1.000000 0.000000 0.000000
s off
g pCube1
usemtl blinn1SG
f 1/1/1 2/2/2 4/4/3 3/3/4
f 3/3/5 4/4/6 6/6/7 5/5/8
f 5/5/9 6/6/10 8/8/11 7/7/12
f 7/7/13 8/8/14 2/10/15 1/9/16
f 2/2/17 8/11/18 6/12/19 4/4/20
f 7/13/21 1/1/22 3/3/23 5/14/24
